<svg width="672" height="326" viewBox="0 0 672 326" fill="none" xmlns="http://www.w3.org/2000/svg"><path d="M304 147C304 138.163 311.163 131 320 131H352C360.837 131 368 138.163 368 147V179C368 187.837 360.837 195 352 195H320C311.163 195 304 187.837 304 179V147Z" fill="#FFDD33"></path><path fill-rule="evenodd" clip-rule="evenodd" d="M346.602 144.333H340.748L345.626 152.333L334.894 144.333H329.041L334.407 154.111L323.187 144.333H317.333L323.187 156.779L317.333 181.667H323.187L334.407 155.001L329.041 181.667H334.894L345.626 153.223L340.748 181.667H346.602L357.333 150.555L346.602 144.333Z" fill="#1C1C1E"></path><path d="M436.415 115.816C445.275 134.566 442.162 156.865 429.856 177.798C417.551 198.729 396.08 218.242 368.344 231.348C340.608 244.453 311.9 248.651 287.917 244.867C263.932 241.083 244.728 229.329 235.868 210.579C227.008 191.828 230.121 169.529 242.427 148.596C254.732 127.666 276.203 108.153 303.939 95.0471C331.675 81.9413 360.383 77.7434 384.366 81.5274C408.351 85.3118 427.555 97.0657 436.415 115.816Z" stroke="#FFEFB9"></path><rect x="263.381" y="82.3812" width="47.6409" height="47.6338" rx="23.8169" fill="white"></rect><rect x="263.381" y="82.3812" width="47.6409" height="47.6338" rx="23.8169" stroke="#FFEFB9" stroke-width="0.762393"></rect><g clip-path="url(#clip0_25_5484)"><g clip-path="url(#clip1_25_5484)"><path d="M294.627 118.198H279.77C278.823 118.198 278.056 117.43 278.056 116.484L278.061 95.9125C278.062 94.9657 278.829 94.1982 279.776 94.1982H290.633L296.346 99.9124L296.342 116.484C296.342 117.43 295.574 118.198 294.627 118.198Z" fill="#2196F3"></path><path d="M296.346 99.9124H290.632L290.633 94.1982L296.346 99.9124Z" fill="#BBDEFB"></path><path d="M290.632 99.9125L296.345 105.627L296.346 99.9125H290.632Z" fill="#1565C0"></path><path d="M292.345 105.627H282.059L282.059 106.769H292.344L292.345 105.627Z" fill="#E3F2FD"></path><path d="M292.344 107.912H282.058L282.058 109.055H292.344L292.344 107.912Z" fill="#E3F2FD"></path><path d="M292.343 110.198H282.058L282.057 111.341H292.343L292.343 110.198Z" fill="#E3F2FD"></path><path d="M287.771 112.484H282.057L282.057 113.626H287.771L287.771 112.484Z" fill="#E3F2FD"></path></g></g><rect x="399.381" y="76.3812" width="47.6409" height="47.6338" rx="23.8169" fill="white"></rect><rect x="399.381" y="76.3812" width="47.6409" height="47.6338" rx="23.8169" stroke="#FFEFB9" stroke-width="0.762393"></rect><g clip-path="url(#clip2_25_5484)"><g clip-path="url(#clip3_25_5484)"><rect width="14.0435" height="9.87427" transform="matrix(1.00001 0 -0.000264901 0.999985 416.28 95.9094)" fill="white"></rect><path d="M417.747 97.6081L417.745 105.243H428.655L428.657 97.6081H417.747ZM427.292 103.88H419.11L419.111 98.9701H427.293L427.292 103.88ZM425.971 88.1982L431.915 94.1452H425.969L425.971 88.1982ZM430.29 112.198H416.107C415.674 112.197 415.258 112.024 414.952 111.718C414.645 111.411 414.473 110.995 414.472 110.562L414.477 89.8342C414.477 88.9342 415.214 88.1982 416.114 88.1982H425.932L425.93 94.1962L431.93 94.1982L431.926 110.562C431.926 111.462 431.19 112.198 430.29 112.198Z" fill="#F4B400"></path></g></g><rect x="224.381" y="198.381" width="47.6409" height="47.6338" rx="23.8169" fill="white"></rect><rect x="224.381" y="198.381" width="47.6409" height="47.6338" rx="23.8169" stroke="#FFEFB9" stroke-width="0.762393"></rect><g clip-path="url(#clip4_25_5484)"><path d="M238.014 229.576L239.072 231.404C239.292 231.789 239.608 232.091 239.979 232.311L243.761 225.768H236.2C236.2 226.195 236.31 226.621 236.53 227.006L238.014 229.576Z" fill="#0066DA"></path><path d="M248.203 218.071L244.424 211.528C244.053 211.748 243.737 212.05 243.517 212.435L236.531 224.531C236.315 224.908 236.201 225.334 236.2 225.768H243.761L248.203 218.071Z" fill="#00AC47"></path><path d="M256.419 232.311C256.79 232.091 257.106 231.789 257.326 231.404L257.766 230.648L259.871 227.006C260.091 226.621 260.201 226.195 260.201 225.768H252.64L254.248 228.93L256.419 232.311Z" fill="#EA4335"></path><path d="M248.203 218.071L251.985 211.528C251.614 211.308 251.187 211.198 250.748 211.198H245.662C245.222 211.198 244.796 211.322 244.424 211.528L248.203 218.071Z" fill="#00832D"></path><path d="M252.641 225.768H243.761L239.979 232.311C240.35 232.531 240.776 232.641 241.216 232.641H255.182C255.622 232.641 256.048 232.517 256.419 232.311L252.641 225.768Z" fill="#2684FC"></path><path d="M256.381 218.483L252.892 212.435C252.672 212.05 252.356 211.748 251.985 211.528L248.203 218.071L252.641 225.768H260.187C260.187 225.342 260.077 224.916 259.858 224.531L256.381 218.483Z" fill="#FFBA00"></path></g><rect x="370.381" y="191.381" width="47.6409" height="47.6338" rx="23.8169" fill="white"></rect><rect x="370.381" y="191.381" width="47.6409" height="47.6338" rx="23.8169" stroke="#FFEFB9" stroke-width="0.762393"></rect><g clip-path="url(#clip5_25_5484)"><rect width="14.0435" height="9.87427" transform="matrix(1.00001 0 -0.000264901 0.999985 387.28 210.909)" fill="white"></rect><g clip-path="url(#clip6_25_5484)"><path d="M393.519 215.743H390.111L390.112 213.834H393.522L393.521 215.744L393.519 215.743ZM396.933 203.198L396.931 209.198H402.931L396.933 203.198V203.198ZM398.293 213.834H394.883L394.882 215.744H398.293L398.293 213.834ZM398.292 217.107H394.882L394.882 219.017H398.292L398.292 217.107ZM402.93 209.698L402.926 225.562C402.926 226.466 402.194 227.198 401.29 227.198H387.107C386.892 227.198 386.68 227.156 386.481 227.073C386.283 226.991 386.102 226.871 385.951 226.719C385.644 226.412 385.472 225.996 385.472 225.562L385.477 204.834C385.477 203.93 386.21 203.198 387.114 203.198H396.432L396.43 209.698H402.93ZM399.656 212.471H388.747L388.745 220.38H399.655L399.657 212.47L399.656 212.471ZM393.519 217.107H390.111L390.111 219.017H393.521L393.521 217.107H393.519Z" fill="#34A853"></path></g></g><defs><clipPath id="clip0_25_5484"><rect width="24" height="24" fill="white" transform="matrix(1.00001 0 -0.000264901 0.999985 275.205 94.1982)"></rect></clipPath><clipPath id="clip1_25_5484"><rect width="24" height="24" fill="white" transform="matrix(1.00001 0 -0.000264901 0.999985 275.205 94.1982)"></rect></clipPath><clipPath id="clip2_25_5484"><rect width="24" height="24" fill="white" transform="matrix(1.00001 0 -0.000264901 0.999985 411.205 88.1982)"></rect></clipPath><clipPath id="clip3_25_5484"><rect width="24" height="24" fill="white" transform="matrix(1.00001 0 -0.000264901 0.999985 411.205 88.1982)"></rect></clipPath><clipPath id="clip4_25_5484"><rect width="24" height="24" fill="white" transform="matrix(1.00001 0 -0.000264901 0.999985 236.205 210.198)"></rect></clipPath><clipPath id="clip5_25_5484"><rect width="24" height="24" fill="white" transform="matrix(1.00001 0 -0.000264901 0.999985 382.205 203.198)"></rect></clipPath><clipPath id="clip6_25_5484"><rect width="24" height="24" fill="white" transform="matrix(1.00001 0 -0.000264901 0.999985 382.205 203.198)"></rect></clipPath></defs></svg>